<svg id="Layer_1" data-name="Layer 1" xmlns="http://www.w3.org/2000/svg" viewBox="0 0 307.4 101"><defs><style>.cls-1,.cls-5{fill:none;}.cls-1{stroke:#000;stroke-miterlimit:10;stroke-width:5.91px;opacity:0.2;isolation:isolate;}.cls-2{opacity:0.4;}.cls-3{fill:#f2be4c;}.cls-4{fill:#c29646;}</style></defs><title>DelVr_Logo</title><line class="cls-1" y1="84.5" x2="253" y2="84.5"/><g class="cls-2"><path d="M147.8,100.5L141,117.8h-0.5l-2.5-6.7H115.1V125h10.1l3.7,10.3-0.2.2H115.1v13.9h28.7l4,10.4H104l-4-10.4h4V111.1l-4-10.6h47.8Z" transform="translate(-38.6 -90)"/><path d="M207.8,90h11l17.7,45.7H238L255.4,90h12.1l-26.8,70h-6.9c-0.3,0-22.9-59.3-22.9-59.3h-6.6l-0.4-.4C207.4,91.1,207.8,90,207.8,90Z" transform="translate(-38.6 -90)"/><path d="M309.2,125.1H292V160l-11,.1-4-10.5h3.8V100.9L276.4,90h44.8c6.9,0,13.8,5.9,13.8,15.9,0,11-7,19.2-14.1,19.2L346,191H334.2Zm-17.1-24.5v10.6h22.8c3.6,0,5.9-1.3,6.8-3.8l0.1-.9v-1.1c0-1.9-1.3-3.4-4-4.5l-2.8-.2H292.1v-0.1Z" transform="translate(-38.6 -90)"/><path d="M176.9,100.6H161.8l4,10.6V160h43.7l-4-10.4H176.8Z" transform="translate(-38.6 -90)"/><path d="M86.8,113.2a42.15,42.15,0,0,0-7.9-7.9q-8.85-4.8-16.8-4.8H39l4,10.6v38.3H39l4,10.4H64.9c4.6,0,9.7-1.9,15-5.4q12.3-10,12.3-23.7v-2C92.2,123.8,90.3,118.6,86.8,113.2ZM76.1,144a18.16,18.16,0,0,1-13.5,5.4H54.1V111.1h7.2a30,30,0,0,1,7.1.9c9,3.8,13.6,9.7,13.6,18.3A20.55,20.55,0,0,1,76.1,144Z" transform="translate(-38.6 -90)"/><path class="cls-3" d="M276.4,90" transform="translate(-38.6 -90)"/></g><path class="cls-4" d="M147.2,100.5l-6.7,17.2H140l-2.5-6.7H114.7v13.7h10.1l3.6,10.2-0.2.2H114.7v13.7h28.6l4,10.3H103.7l-4-10.3h4V111l-4-10.5h47.5Z" transform="translate(-38.6 -90)"/><path class="cls-3" d="M207.4,90h10.9l17.6,45.2h1.5L254.8,90h12.1l-26.7,69.2h-6.9c-0.3,0-22.8-58.7-22.8-58.7h-6.6l-0.4-.4C207,91.1,207.4,90,207.4,90Z" transform="translate(-38.6 -90)"/><path class="cls-3" d="M308.7,124.7H291.6v34.5l-11,.1-4-10.4h3.8V100.7L276,90h44.7c6.9,0,13.8,5.9,13.8,15.8,0,10.8-6.9,19-14,19L345.6,190H333.8Zm-17.1-24.2V111h22.8c3.6,0,5.9-1.3,6.8-3.8l0.1-.9v-1.1c0-1.9-1.3-3.4-4-4.5l-2.8-.2H291.6Z" transform="translate(-38.6 -90)"/><path class="cls-4" d="M176.4,100.5H161.3l4,10.5v48.2H209l-4-10.3H176.4V100.5Z" transform="translate(-38.6 -90)"/><path class="cls-5" d="M67.8,111.9a30,30,0,0,0-7.1-.9H53.5v37.8H62a18,18,0,0,0,13.4-5.3c3.9-4.2,5.8-8.8,5.8-13.5C81.3,121.5,76.8,115.7,67.8,111.9Z" transform="translate(-38.6 -90)"/><path class="cls-4" d="M86.3,113.1a41.48,41.48,0,0,0-7.9-7.8c-5.8-3.2-11.4-4.8-16.7-4.8H38.6l4,10.5v37.9h-4l4,10.3H64.4c4.6,0,9.6-1.8,14.9-5.3,8.2-6.7,12.3-14.4,12.3-23.4v-1.9C91.6,123.6,89.7,118.4,86.3,113.1ZM75.5,143.5a18,18,0,0,1-13.4,5.3H53.6V111h7.2a30,30,0,0,1,7.1.9c9,3.8,13.5,9.6,13.5,18.1A20.09,20.09,0,0,1,75.5,143.5Z" transform="translate(-38.6 -90)"/></svg>